# xmcd
#
# Track frame offsets:
#	150
#	20525
#	42007
#	57867
#	74827
#	94505
#	114697
#	131987
#	149842
#	170192
#	191712
#	207565
#	224520
#	244145
#	264227
#	281512
#	310800
#
# Disc length: 4156 seconds
#
# Revision: 1
# Processed by: cddbd v1.5.2PL0 Copyright (c) Steve Scherf et al.
# Submitted via: audiograbber 1.83.01
#
DISCID=19103a11
DTITLE=Faith Hill - SC2242
DYEAR=1900
DGENRE=Country
TTITLE0=Faith Hill - That's How Love Moves
TTITLE1=Faith Hill - There Will Come A Day
TTITLE2=Faith Hill - The Way You Love Me
TTITLE3=Faith Hill - I Got My Baby
TTITLE4=Faith Hill - Breathe
TTITLE5=Faith Hill - Let's Make Love
TTITLE6=Faith Hill - If My Heart Had Wings
TTITLE7=Faith Hill - Bringing Out The Elvis
TTITLE8=Faith Hill - That's How Love Moves (Vocals)
TTITLE9=Faith Hill - There Will Come A Day (Vocals)
TTITLE10=Faith Hill - The Way You Love Me (Vocals)
TTITLE11=Faith Hill - I Got My Baby (Vocals)
TTITLE12=Faith Hill - Breathe (Vocals)
TTITLE13=Faith Hill - Let's Make Love (Vocals)
TTITLE14=Faith Hill - If My Heart Had Wings (Vocals)
TTITLE15=Faith Hill - Bringing Out The Elvis (Vocals)
TTITLE16=Data Track
EXTD=
EXTT0=
EXTT1=
EXTT2=
EXTT3=
EXTT4=
EXTT5=
EXTT6=
EXTT7=
EXTT8=
EXTT9=
EXTT10=
EXTT11=
EXTT12=
EXTT13=
EXTT14=
EXTT15=
EXTT16=
PLAYORDER=
